<svg xmlns="http://www.w3.org/2000/svg" viewBox="0 0 1400 610" width="1400" height="610" font-family="'Helvetica Neue', Helvetica, Arial, sans-serif">
<rect width="1400" height="610" fill="#fff"/>
<text x="250" y="48" font-size="26" font-weight="800" fill="#12304f" text-anchor="middle">Dense light field</text>
<text x="250" y="80" font-size="20" fill="#3b5878" text-anchor="middle">9 × 9 = 81 sub-aperture images</text>
<text x="1000" y="48" font-size="26" font-weight="800" fill="#12304f" text-anchor="middle">Cross-shaped sparse light field</text>
<text x="1000" y="80" font-size="20" fill="#3b5878" text-anchor="middle">17 sub-aperture images (79% less data)</text>
<rect x="42.0" y="110" width="40" height="40" rx="6" fill="#9fb8d4"/>
<rect x="89.0" y="110" width="40" height="40" rx="6" fill="#9fb8d4"/>
<rect x="136.0" y="110" width="40" height="40" rx="6" fill="#9fb8d4"/>
<rect x="183.0" y="110" width="40" height="40" rx="6" fill="#9fb8d4"/>
<rect x="230.0" y="110" width="40" height="40" rx="6" fill="#37b6ff"/>
<rect x="277.0" y="110" width="40" height="40" rx="6" fill="#9fb8d4"/>
<rect x="324.0" y="110" width="40" height="40" rx="6" fill="#9fb8d4"/>
<rect x="371.0" y="110" width="40" height="40" rx="6" fill="#9fb8d4"/>
<rect x="418.0" y="110" width="40" height="40" rx="6" fill="#9fb8d4"/>
<rect x="42.0" y="157" width="40" height="40" rx="6" fill="#9fb8d4"/>
<rect x="89.0" y="157" width="40" height="40" rx="6" fill="#9fb8d4"/>
<rect x="136.0" y="157" width="40" height="40" rx="6" fill="#9fb8d4"/>
<rect x="183.0" y="157" width="40" height="40" rx="6" fill="#9fb8d4"/>
<rect x="230.0" y="157" width="40" height="40" rx="6" fill="#37b6ff"/>
<rect x="277.0" y="157" width="40" height="40" rx="6" fill="#9fb8d4"/>
<rect x="324.0" y="157" width="40" height="40" rx="6" fill="#9fb8d4"/>
<rect x="371.0" y="157" width="40" height="40" rx="6" fill="#9fb8d4"/>
<rect x="418.0" y="157" width="40" height="40" rx="6" fill="#9fb8d4"/>
<rect x="42.0" y="204" width="40" height="40" rx="6" fill="#9fb8d4"/>
<rect x="89.0" y="204" width="40" height="40" rx="6" fill="#9fb8d4"/>
<rect x="136.0" y="204" width="40" height="40" rx="6" fill="#9fb8d4"/>
<rect x="183.0" y="204" width="40" height="40" rx="6" fill="#9fb8d4"/>
<rect x="230.0" y="204" width="40" height="40" rx="6" fill="#37b6ff"/>
<rect x="277.0" y="204" width="40" height="40" rx="6" fill="#9fb8d4"/>
<rect x="324.0" y="204" width="40" height="40" rx="6" fill="#9fb8d4"/>
<rect x="371.0" y="204" width="40" height="40" rx="6" fill="#9fb8d4"/>
<rect x="418.0" y="204" width="40" height="40" rx="6" fill="#9fb8d4"/>
<rect x="42.0" y="251" width="40" height="40" rx="6" fill="#9fb8d4"/>
<rect x="89.0" y="251" width="40" height="40" rx="6" fill="#9fb8d4"/>
<rect x="136.0" y="251" width="40" height="40" rx="6" fill="#9fb8d4"/>
<rect x="183.0" y="251" width="40" height="40" rx="6" fill="#9fb8d4"/>
<rect x="230.0" y="251" width="40" height="40" rx="6" fill="#37b6ff"/>
<rect x="277.0" y="251" width="40" height="40" rx="6" fill="#9fb8d4"/>
<rect x="324.0" y="251" width="40" height="40" rx="6" fill="#9fb8d4"/>
<rect x="371.0" y="251" width="40" height="40" rx="6" fill="#9fb8d4"/>
<rect x="418.0" y="251" width="40" height="40" rx="6" fill="#9fb8d4"/>
<rect x="42.0" y="298" width="40" height="40" rx="6" fill="#37b6ff"/>
<rect x="89.0" y="298" width="40" height="40" rx="6" fill="#37b6ff"/>
<rect x="136.0" y="298" width="40" height="40" rx="6" fill="#37b6ff"/>
<rect x="183.0" y="298" width="40" height="40" rx="6" fill="#37b6ff"/>
<rect x="230.0" y="298" width="40" height="40" rx="6" fill="#ffb000"/>
<rect x="277.0" y="298" width="40" height="40" rx="6" fill="#37b6ff"/>
<rect x="324.0" y="298" width="40" height="40" rx="6" fill="#37b6ff"/>
<rect x="371.0" y="298" width="40" height="40" rx="6" fill="#37b6ff"/>
<rect x="418.0" y="298" width="40" height="40" rx="6" fill="#37b6ff"/>
<rect x="42.0" y="345" width="40" height="40" rx="6" fill="#9fb8d4"/>
<rect x="89.0" y="345" width="40" height="40" rx="6" fill="#9fb8d4"/>
<rect x="136.0" y="345" width="40" height="40" rx="6" fill="#9fb8d4"/>
<rect x="183.0" y="345" width="40" height="40" rx="6" fill="#9fb8d4"/>
<rect x="230.0" y="345" width="40" height="40" rx="6" fill="#37b6ff"/>
<rect x="277.0" y="345" width="40" height="40" rx="6" fill="#9fb8d4"/>
<rect x="324.0" y="345" width="40" height="40" rx="6" fill="#9fb8d4"/>
<rect x="371.0" y="345" width="40" height="40" rx="6" fill="#9fb8d4"/>
<rect x="418.0" y="345" width="40" height="40" rx="6" fill="#9fb8d4"/>
<rect x="42.0" y="392" width="40" height="40" rx="6" fill="#9fb8d4"/>
<rect x="89.0" y="392" width="40" height="40" rx="6" fill="#9fb8d4"/>
<rect x="136.0" y="392" width="40" height="40" rx="6" fill="#9fb8d4"/>
<rect x="183.0" y="392" width="40" height="40" rx="6" fill="#9fb8d4"/>
<rect x="230.0" y="392" width="40" height="40" rx="6" fill="#37b6ff"/>
<rect x="277.0" y="392" width="40" height="40" rx="6" fill="#9fb8d4"/>
<rect x="324.0" y="392" width="40" height="40" rx="6" fill="#9fb8d4"/>
<rect x="371.0" y="392" width="40" height="40" rx="6" fill="#9fb8d4"/>
<rect x="418.0" y="392" width="40" height="40" rx="6" fill="#9fb8d4"/>
<rect x="42.0" y="439" width="40" height="40" rx="6" fill="#9fb8d4"/>
<rect x="89.0" y="439" width="40" height="40" rx="6" fill="#9fb8d4"/>
<rect x="136.0" y="439" width="40" height="40" rx="6" fill="#9fb8d4"/>
<rect x="183.0" y="439" width="40" height="40" rx="6" fill="#9fb8d4"/>
<rect x="230.0" y="439" width="40" height="40" rx="6" fill="#37b6ff"/>
<rect x="277.0" y="439" width="40" height="40" rx="6" fill="#9fb8d4"/>
<rect x="324.0" y="439" width="40" height="40" rx="6" fill="#9fb8d4"/>
<rect x="371.0" y="439" width="40" height="40" rx="6" fill="#9fb8d4"/>
<rect x="418.0" y="439" width="40" height="40" rx="6" fill="#9fb8d4"/>
<rect x="42.0" y="486" width="40" height="40" rx="6" fill="#9fb8d4"/>
<rect x="89.0" y="486" width="40" height="40" rx="6" fill="#9fb8d4"/>
<rect x="136.0" y="486" width="40" height="40" rx="6" fill="#9fb8d4"/>
<rect x="183.0" y="486" width="40" height="40" rx="6" fill="#9fb8d4"/>
<rect x="230.0" y="486" width="40" height="40" rx="6" fill="#37b6ff"/>
<rect x="277.0" y="486" width="40" height="40" rx="6" fill="#9fb8d4"/>
<rect x="324.0" y="486" width="40" height="40" rx="6" fill="#9fb8d4"/>
<rect x="371.0" y="486" width="40" height="40" rx="6" fill="#9fb8d4"/>
<rect x="418.0" y="486" width="40" height="40" rx="6" fill="#9fb8d4"/>
<rect x="792.0" y="110" width="40" height="40" rx="6" fill="#e6edf5"/>
<rect x="839.0" y="110" width="40" height="40" rx="6" fill="#e6edf5"/>
<rect x="886.0" y="110" width="40" height="40" rx="6" fill="#e6edf5"/>
<rect x="933.0" y="110" width="40" height="40" rx="6" fill="#e6edf5"/>
<rect x="980.0" y="110" width="40" height="40" rx="6" fill="#37b6ff"/>
<rect x="1027.0" y="110" width="40" height="40" rx="6" fill="#e6edf5"/>
<rect x="1074.0" y="110" width="40" height="40" rx="6" fill="#e6edf5"/>
<rect x="1121.0" y="110" width="40" height="40" rx="6" fill="#e6edf5"/>
<rect x="1168.0" y="110" width="40" height="40" rx="6" fill="#e6edf5"/>
<rect x="792.0" y="157" width="40" height="40" rx="6" fill="#e6edf5"/>
<rect x="839.0" y="157" width="40" height="40" rx="6" fill="#e6edf5"/>
<rect x="886.0" y="157" width="40" height="40" rx="6" fill="#e6edf5"/>
<rect x="933.0" y="157" width="40" height="40" rx="6" fill="#e6edf5"/>
<rect x="980.0" y="157" width="40" height="40" rx="6" fill="#37b6ff"/>
<rect x="1027.0" y="157" width="40" height="40" rx="6" fill="#e6edf5"/>
<rect x="1074.0" y="157" width="40" height="40" rx="6" fill="#e6edf5"/>
<rect x="1121.0" y="157" width="40" height="40" rx="6" fill="#e6edf5"/>
<rect x="1168.0" y="157" width="40" height="40" rx="6" fill="#e6edf5"/>
<rect x="792.0" y="204" width="40" height="40" rx="6" fill="#e6edf5"/>
<rect x="839.0" y="204" width="40" height="40" rx="6" fill="#e6edf5"/>
<rect x="886.0" y="204" width="40" height="40" rx="6" fill="#e6edf5"/>
<rect x="933.0" y="204" width="40" height="40" rx="6" fill="#e6edf5"/>
<rect x="980.0" y="204" width="40" height="40" rx="6" fill="#37b6ff"/>
<rect x="1027.0" y="204" width="40" height="40" rx="6" fill="#e6edf5"/>
<rect x="1074.0" y="204" width="40" height="40" rx="6" fill="#e6edf5"/>
<rect x="1121.0" y="204" width="40" height="40" rx="6" fill="#e6edf5"/>
<rect x="1168.0" y="204" width="40" height="40" rx="6" fill="#e6edf5"/>
<rect x="792.0" y="251" width="40" height="40" rx="6" fill="#e6edf5"/>
<rect x="839.0" y="251" width="40" height="40" rx="6" fill="#e6edf5"/>
<rect x="886.0" y="251" width="40" height="40" rx="6" fill="#e6edf5"/>
<rect x="933.0" y="251" width="40" height="40" rx="6" fill="#e6edf5"/>
<rect x="980.0" y="251" width="40" height="40" rx="6" fill="#37b6ff"/>
<rect x="1027.0" y="251" width="40" height="40" rx="6" fill="#e6edf5"/>
<rect x="1074.0" y="251" width="40" height="40" rx="6" fill="#e6edf5"/>
<rect x="1121.0" y="251" width="40" height="40" rx="6" fill="#e6edf5"/>
<rect x="1168.0" y="251" width="40" height="40" rx="6" fill="#e6edf5"/>
<rect x="792.0" y="298" width="40" height="40" rx="6" fill="#37b6ff"/>
<rect x="839.0" y="298" width="40" height="40" rx="6" fill="#37b6ff"/>
<rect x="886.0" y="298" width="40" height="40" rx="6" fill="#37b6ff"/>
<rect x="933.0" y="298" width="40" height="40" rx="6" fill="#37b6ff"/>
<rect x="980.0" y="298" width="40" height="40" rx="6" fill="#ffb000"/>
<rect x="1027.0" y="298" width="40" height="40" rx="6" fill="#37b6ff"/>
<rect x="1074.0" y="298" width="40" height="40" rx="6" fill="#37b6ff"/>
<rect x="1121.0" y="298" width="40" height="40" rx="6" fill="#37b6ff"/>
<rect x="1168.0" y="298" width="40" height="40" rx="6" fill="#37b6ff"/>
<rect x="792.0" y="345" width="40" height="40" rx="6" fill="#e6edf5"/>
<rect x="839.0" y="345" width="40" height="40" rx="6" fill="#e6edf5"/>
<rect x="886.0" y="345" width="40" height="40" rx="6" fill="#e6edf5"/>
<rect x="933.0" y="345" width="40" height="40" rx="6" fill="#e6edf5"/>
<rect x="980.0" y="345" width="40" height="40" rx="6" fill="#37b6ff"/>
<rect x="1027.0" y="345" width="40" height="40" rx="6" fill="#e6edf5"/>
<rect x="1074.0" y="345" width="40" height="40" rx="6" fill="#e6edf5"/>
<rect x="1121.0" y="345" width="40" height="40" rx="6" fill="#e6edf5"/>
<rect x="1168.0" y="345" width="40" height="40" rx="6" fill="#e6edf5"/>
<rect x="792.0" y="392" width="40" height="40" rx="6" fill="#e6edf5"/>
<rect x="839.0" y="392" width="40" height="40" rx="6" fill="#e6edf5"/>
<rect x="886.0" y="392" width="40" height="40" rx="6" fill="#e6edf5"/>
<rect x="933.0" y="392" width="40" height="40" rx="6" fill="#e6edf5"/>
<rect x="980.0" y="392" width="40" height="40" rx="6" fill="#37b6ff"/>
<rect x="1027.0" y="392" width="40" height="40" rx="6" fill="#e6edf5"/>
<rect x="1074.0" y="392" width="40" height="40" rx="6" fill="#e6edf5"/>
<rect x="1121.0" y="392" width="40" height="40" rx="6" fill="#e6edf5"/>
<rect x="1168.0" y="392" width="40" height="40" rx="6" fill="#e6edf5"/>
<rect x="792.0" y="439" width="40" height="40" rx="6" fill="#e6edf5"/>
<rect x="839.0" y="439" width="40" height="40" rx="6" fill="#e6edf5"/>
<rect x="886.0" y="439" width="40" height="40" rx="6" fill="#e6edf5"/>
<rect x="933.0" y="439" width="40" height="40" rx="6" fill="#e6edf5"/>
<rect x="980.0" y="439" width="40" height="40" rx="6" fill="#37b6ff"/>
<rect x="1027.0" y="439" width="40" height="40" rx="6" fill="#e6edf5"/>
<rect x="1074.0" y="439" width="40" height="40" rx="6" fill="#e6edf5"/>
<rect x="1121.0" y="439" width="40" height="40" rx="6" fill="#e6edf5"/>
<rect x="1168.0" y="439" width="40" height="40" rx="6" fill="#e6edf5"/>
<rect x="792.0" y="486" width="40" height="40" rx="6" fill="#e6edf5"/>
<rect x="839.0" y="486" width="40" height="40" rx="6" fill="#e6edf5"/>
<rect x="886.0" y="486" width="40" height="40" rx="6" fill="#e6edf5"/>
<rect x="933.0" y="486" width="40" height="40" rx="6" fill="#e6edf5"/>
<rect x="980.0" y="486" width="40" height="40" rx="6" fill="#37b6ff"/>
<rect x="1027.0" y="486" width="40" height="40" rx="6" fill="#e6edf5"/>
<rect x="1074.0" y="486" width="40" height="40" rx="6" fill="#e6edf5"/>
<rect x="1121.0" y="486" width="40" height="40" rx="6" fill="#e6edf5"/>
<rect x="1168.0" y="486" width="40" height="40" rx="6" fill="#e6edf5"/>
<path d="M520 340 H680" stroke="#12304f" stroke-width="4"/><path d="M668 330 L680 340 L668 350" fill="none" stroke="#12304f" stroke-width="4"/>
<text x="600" y="320" font-size="19" fill="#3b5878" text-anchor="middle">keep the cross</text>
<text x="700" y="590" font-size="19" fill="#3b5878" text-anchor="middle">Inspired by the EPIModule sparse light field camera. The orange square is the middle view.</text>
</svg>